<?xml version="1.0" encoding="UTF-8"?>
<svg width="12px" height="14px" viewBox="0 0 12 14" version="1.1" xmlns="http://www.w3.org/2000/svg" xmlns:xlink="http://www.w3.org/1999/xlink">
    <!-- Generator: Sketch 54.1 (76490) - https://sketchapp.com -->
    <title>13_复制</title>
    <desc>Created with Sketch.</desc>
    <g id="HQ" stroke="none" stroke-width="1" fill="none" fill-rule="evenodd">
        <g id="投票挖矿Dash-2" transform="translate(-1104.000000, -497.000000)" fill-rule="nonzero">
            <g id="13_复制" transform="translate(1100.000000, 494.000000)">
                <g id="编组">
                    <rect id="矩形" fill="#5D89E6" opacity="0" x="0" y="0" width="20" height="20"></rect>
                    <path d="M14.342793,3.30064453 L8.23126953,3.30064453 C7.43675781,3.30064453 6.79332031,4.05123047 6.79332031,4.97792969 L13.6189844,4.97792969 C14.0187305,4.97792969 14.342793,5.35103516 14.342793,5.8128125 L14.342793,14.2029492 C15.1366016,14.2029492 15.7808789,13.4514844 15.7808789,12.5256641 L15.7808789,4.97792969 C15.7808789,4.05123047 15.1366016,3.30064453 14.342793,3.30064453 L14.342793,3.30064453 Z M12.1858203,8.33246094 L5.71480469,8.33246094 L5.71480469,7.49363281 L12.1858203,7.49363281 L12.1858203,8.33246094 Z M12.1858203,10.8483594 L5.71480469,10.8483594 L5.71480469,10.0097461 L12.1858203,10.0097461 L12.1858203,10.8483594 Z M4.9946875,5.81654297 C4.59822266,5.81654297 4.27677734,6.191875 4.27677734,6.65396484 L4.27677734,15.8815039 C4.27677734,16.3439258 4.59849609,16.7188086 4.9946875,16.7188086 L12.9059375,16.7188086 C13.3024023,16.7188086 13.6238477,16.3434766 13.6238477,15.8815039 L13.6238477,6.65396484 C13.6238477,6.19146484 13.3021289,5.81654297 12.9059375,5.81654297 L4.9946875,5.81654297 Z" id="形状" fill="#5f6eff"></path>
                </g>
            </g>
        </g>
    </g>
</svg>