<?xml version="1.0" encoding="utf-8"?>
<!-- Generator: Adobe Illustrator 22.0.1, SVG Export Plug-In . SVG Version: 6.00 Build 0)  -->
<svg version="1.1" id="图层_1" xmlns="http://www.w3.org/2000/svg" xmlns:xlink="http://www.w3.org/1999/xlink" x="0px" y="0px"
	 viewBox="0 0 1806.9 369.6" style="enable-background:new 0 0 1806.9 369.6;" xml:space="preserve">
<style type="text/css">
	.st0{fill:#131F3D;}
	.st1{fill:#0053FB;}
	.st2{fill:#031A63;}
	.st3{fill:#FFE52C;}
</style>
<title>logo-反白</title>
<g>
	<g>
		<path class="st0" d="M399,85.3h32V161h86.8V85.3h32v182h-32v-76.7H431v76.7h-32V85.3z"/>
		<path class="st0" d="M676.9,267.3v-16.9c-9.4,11.2-23.7,19.8-44.5,19.8c-26,0-48.9-14.8-48.9-42.4v-0.5c0-30.4,23.7-45,55.6-45
			c16.6,0,27.3,2.3,38,5.7v-2.6c0-19-12-29.4-33.8-29.4c-15.3,0-26.8,3.4-39.3,8.6l-8.6-25.2c15.1-6.8,29.9-11.4,52.3-11.4
			c40.6,0,60.3,21.3,60.3,58v81.4H676.9z M677.7,209.9c-8.1-3.1-19.2-5.5-31.5-5.5c-19.8,0-31.5,8.1-31.5,21.3v0.5
			c0,13,11.7,20.3,26.5,20.3c20.8,0,36.4-11.7,36.4-28.9V209.9z"/>
		<path class="st0" d="M734.4,249.4l14-21.3c14.8,11.2,30.9,16.9,45,16.9c13.5,0,21.3-5.7,21.3-14.8v-0.5
			c0-10.7-14.6-14.3-30.7-19.2c-20.3-5.7-42.9-14-42.9-40.3v-0.5c0-26,21.6-41.9,48.9-41.9c17.2,0,35.9,6,50.4,15.6L828,165.7
			c-13.3-8.1-27.3-13-38.7-13c-12.2,0-19.2,5.7-19.2,13.8v0.5c0,9.9,14.8,14,30.9,19.2c20,6.2,42.6,15.3,42.6,40v0.5
			c0,28.9-22.4,43.2-51,43.2C773.1,269.9,751.6,262.9,734.4,249.4z"/>
		<path class="st0" d="M875.6,77.5H907v73.8c8.8-13,21.6-24.2,42.9-24.2c30.9,0,48.9,20.8,48.9,52.8v87.4h-31.5v-78
			c0-21.3-10.7-33.5-29.4-33.5c-18.2,0-30.9,12.7-30.9,34.1v77.5h-31.5V77.5z"/>
		<path class="st0" d="M1182.6,253.3c-15.3,10.9-34.1,17.2-55.4,17.2c-55.9,0-94.9-42.4-94.9-93.6v-0.5c0-51.2,39.5-94.1,95.4-94.1
			c55.9,0,94.9,42.4,94.9,93.6v0.5c0,20.5-6.5,40-18.5,55.9l20.8,17.7l-20.5,22.9L1182.6,253.3z M1159,232.2l-31.2-26.5l20.5-23.4
			l31.5,28.6c6.2-9.6,9.4-21.3,9.4-34.1v-0.5c0-35.4-25.7-64.7-61.9-64.7c-36.1,0-61.4,28.9-61.4,64.2v0.5
			c0,35.4,25.7,64.7,61.9,64.7C1139.7,241.1,1150.4,237.7,1159,232.2z"/>
		<path class="st0" d="M1256.2,217.4v-87.4h31.5v78c0,21.3,10.7,33.5,29.4,33.5c18.2,0,30.9-12.7,30.9-34.1v-77.5h31.5v137.3H1348
			V246c-8.8,13-21.6,24.2-42.9,24.2C1274.2,270.2,1256.2,249.4,1256.2,217.4z"/>
		<path class="st0" d="M1503,267.3v-16.9c-9.4,11.2-23.7,19.8-44.5,19.8c-26,0-48.9-14.8-48.9-42.4v-0.5c0-30.4,23.7-45,55.6-45
			c16.6,0,27.3,2.3,38,5.7v-2.6c0-19-12-29.4-33.8-29.4c-15.3,0-26.8,3.4-39.3,8.6l-8.6-25.2c15.1-6.8,29.9-11.4,52.3-11.4
			c40.6,0,60.3,21.3,60.3,58v81.4H1503z M1503.7,209.9c-8.1-3.1-19.2-5.5-31.5-5.5c-19.8,0-31.5,8.1-31.5,21.3v0.5
			c0,13,11.7,20.3,26.5,20.3c20.8,0,36.4-11.7,36.4-28.9V209.9z"/>
		<path class="st0" d="M1571.6,130.1h31.5V161c8.6-20.5,24.4-34.6,48.6-33.5v33.3h-1.8c-27.6,0-46.8,17.9-46.8,54.3v52.3h-31.5
			V130.1z"/>
		<path class="st0" d="M1679,77.5h31.5v113.4l56.9-60.8h38.2L1751,186l56.4,81.4H1771l-41.3-59.3l-19.2,20v39.3H1679V77.5z"/>
	</g>
	<g>
		<path class="st1" d="M284.8,258.6c-1.7,6.8-3.9,13.5-6.8,19.9c-10.7,24.3-27.9,43.1-49.6,58c-19.3,13.3-40.5,22.3-63,28.4
			c-6.7,1.8-13.5,3.2-20.3,4.6c-1.4,0.2-2.9,0-4.3-0.4c-20.6-4.2-40.5-11.2-59.3-20.8c-18.3-9.5-34.8-21.4-48.7-36.8
			c-16.3-18.1-27.1-39-31.4-63.2c-1.8-10.4-2.4-21-1.8-31.5c1.9-31.9,13.1-60.3,33.8-84.7C55,106.8,82,90.7,114.6,83.8
			c0.7-0.2,1.5-0.3,2.2-0.5s1.4-0.2,2.3-0.4c7.4,43.2,25.8,81.1,55.9,113.1S241.8,248.7,284.8,258.6z"/>
		<path class="st1" d="M286.2,234.1c-24.4-5.9-47.3-16.7-67.4-31.7c10.8,0.9,21.7,1.1,32.5,0.6c10.9-0.6,21.7-1.9,32.4-4
			C286,210.6,286.8,222.4,286.2,234.1z"/>
		<path class="st2" d="M261.2,29.6l2.9,2.9c6.5,6.5,6.5,17.1,0,23.6l-27.6,27.6c-6.5,6.5-17.1,6.5-23.6,0l-27.6-27.6
			c-6.5-6.5-6.5-17.1,0-23.6l2.9-2.9H-0.5v105.9c33.6-49.4,80.7-75.2,140.6-79.2l0.1,1c1.1,8.7,1.8,17.4,3.4,26
			c5.8,31.8,19.6,61.5,40.2,86.4c0.7,0.8,1.6,1.4,2.6,1.7c12.7,3.8,25.7,6.2,38.9,7.3c20.4,1.6,40.9,0,60.7-4.7h0.1V29.6H261.2z"/>
		<path class="st3" d="M261.2,29.6L236.5,4.9c-6.5-6.5-17.1-6.5-23.6,0l-24.7,24.7H261.2z"/>
	</g>
</g>
</svg>
