<svg id="图层_1" data-name="图层 1" xmlns="http://www.w3.org/2000/svg" viewBox="0 0 1806.88 369.62"><defs><style>.cls-1,.cls-2{fill:#fff;}.cls-2{fill-rule:evenodd;}</style></defs><title>logo-反白</title><path class="cls-1" d="M285.25,258.56a118.31,118.31,0,0,1-6.78,19.87c-10.73,24.3-27.89,43.11-49.56,58-19.26,13.28-40.47,22.33-63,28.43-6.69,1.82-13.5,3.2-20.29,4.62a10.9,10.9,0,0,1-4.29-.39,233,233,0,0,1-59.28-20.79c-18.31-9.5-34.82-21.41-48.66-36.79C17.09,293.4,6.33,272.47,2,248.31a133.67,133.67,0,0,1-1.79-31.5c1.94-31.93,13.11-60.33,33.81-84.74q32.21-38,81.09-48.33c.74-.16,1.48-.33,2.23-.47s1.38-.23,2.34-.39c7.4,43.25,25.83,81.11,55.89,113.08S242.28,248.67,285.25,258.56Z"/><path class="cls-1" d="M286.65,234.06a185.12,185.12,0,0,1-67.39-31.66,271.19,271.19,0,0,0,32.5.63,233.3,233.3,0,0,0,32.43-4A139,139,0,0,1,286.65,234.06Z"/><path class="cls-1" d="M261.67,29.56l2.9,2.9a16.72,16.72,0,0,1,0,23.63L237,83.66a16.72,16.72,0,0,1-23.63,0L185.8,56.09a16.72,16.72,0,0,1,0-23.63l2.9-2.9H0V135.51C33.63,86.13,80.7,60.26,140.61,56.33l.14,1c1.12,8.67,1.84,17.42,3.42,26a188.4,188.4,0,0,0,40.21,86.42,5.57,5.57,0,0,0,2.62,1.7,189.26,189.26,0,0,0,38.85,7.29A193.26,193.26,0,0,0,286.58,174l.07,0V29.56Z"/><path class="cls-2" d="M261.67,29.56,237,4.89a16.72,16.72,0,0,0-23.63,0L188.7,29.56Z"/><path class="cls-1" d="M398.48,84.35h32V160h86.83V84.35h32v182h-32V189.65H430.46v76.69h-32Z"/><path class="cls-1" d="M676.41,266.34v-16.9c-9.36,11.18-23.66,19.76-44.46,19.76-26,0-48.88-14.82-48.88-42.37v-.52c0-30.42,23.67-45,55.64-45,16.64,0,27.3,2.34,38,5.72v-2.6c0-19-12-29.38-33.8-29.38-15.34,0-26.78,3.38-39.26,8.58L595,138.43c15.08-6.76,29.9-11.44,52.26-11.44,40.56,0,60.32,21.32,60.32,58v81.37Zm.78-57.45a89.87,89.87,0,0,0-31.46-5.46c-19.76,0-31.46,8.06-31.46,21.32v.52c0,13,11.7,20.27,26.52,20.27,20.8,0,36.4-11.69,36.4-28.85Z"/><path class="cls-1" d="M733.87,248.4l14-21.31c14.82,11.18,30.94,16.89,45,16.89,13.52,0,21.32-5.71,21.32-14.81v-.52c0-10.66-14.56-14.3-30.68-19.24-20.28-5.72-42.9-14-42.9-40.3v-.52c0-26,21.58-41.86,48.88-41.86,17.16,0,35.88,6,50.44,15.6l-12.48,22.36c-13.26-8.06-27.3-13-38.74-13-12.22,0-19.24,5.72-19.24,13.78V166c0,9.88,14.82,14,30.94,19.24,20,6.24,42.64,15.34,42.64,40v.52c0,28.86-22.36,43.15-51,43.15C772.61,268.94,751,261.92,733.87,248.4Z"/><path class="cls-1" d="M875.05,76.55h31.46v73.84c8.84-13,21.58-24.18,42.9-24.18,30.94,0,48.88,20.8,48.88,52.78v87.35H966.83v-78c0-21.32-10.66-33.54-29.38-33.54-18.2,0-30.94,12.74-30.94,34.06v77.47H875.05Z"/><path class="cls-1" d="M1182.11,252.31c-15.34,10.91-34.06,17.15-55.38,17.15-55.9,0-94.9-42.37-94.9-93.59v-.52c0-51.22,39.52-94.12,95.42-94.12s94.9,42.38,94.9,93.6v.52a92.48,92.48,0,0,1-18.46,55.9l20.8,17.68L1204,271.8Zm-23.66-21.06-31.2-26.52,20.54-23.4,31.46,28.6c6.24-9.62,9.36-21.32,9.36-34.06v-.52c0-35.36-25.74-64.74-61.88-64.74s-61.36,28.86-61.36,64.22v.52c0,35.36,25.74,64.74,61.88,64.74A57.84,57.84,0,0,0,1158.45,231.25Z"/><path class="cls-1" d="M1255.69,216.43V129.07h31.46v78c0,21.32,10.66,33.54,29.38,33.54,18.2,0,30.94-12.74,30.94-34.06V129.07h31.46V266.34h-31.46V245c-8.84,13-21.58,24.18-42.9,24.18C1273.63,269.2,1255.69,248.4,1255.69,216.43Z"/><path class="cls-1" d="M1502.43,266.34v-16.9c-9.36,11.18-23.66,19.76-44.46,19.76-26,0-48.88-14.82-48.88-42.37v-.52c0-30.42,23.66-45,55.64-45,16.64,0,27.3,2.34,38,5.72v-2.6c0-19-12-29.38-33.8-29.38-15.34,0-26.78,3.38-39.26,8.58l-8.58-25.22c15.08-6.76,29.9-11.44,52.26-11.44,40.56,0,60.32,21.32,60.32,58v81.37Zm.78-57.45a89.87,89.87,0,0,0-31.46-5.46c-19.76,0-31.46,8.06-31.46,21.32v.52c0,13,11.7,20.27,26.52,20.27,20.8,0,36.4-11.69,36.4-28.85Z"/><path class="cls-1" d="M1571.07,129.07h31.45V160c8.58-20.54,24.44-34.58,48.62-33.54v33.28h-1.82c-27.56,0-46.8,17.94-46.8,54.34v52.25h-31.45Z"/><path class="cls-1" d="M1678.44,76.55h31.46V189.91l56.94-60.84h38.22l-54.6,55.9,56.42,81.37h-36.4l-41.34-59.27-19.24,20v39.25h-31.46Z"/></svg>