<?xml version="1.0" encoding="UTF-8"?>
<svg width="13px" height="14px" viewBox="0 0 13 14" version="1.1" xmlns="http://www.w3.org/2000/svg" xmlns:xlink="http://www.w3.org/1999/xlink">
    <!-- Generator: Sketch 59 (86127) - https://sketch.com -->
    <title>方块</title>
    <desc>Created with Sketch.</desc>
    <g id="实验室" stroke="none" stroke-width="1" fill="none" fill-rule="evenodd">
        <g id="Polka-01" transform="translate(-1171.000000, -689.000000)" fill-rule="nonzero">
            <g id="方块" transform="translate(1171.000000, 689.000000)">
                <rect id="矩形" fill="#000000" opacity="0" x="0" y="0" width="14" height="14"></rect>
                <path d="M7.26386719,0.5578125 C7.41835937,0.82578125 7.32675781,1.16757813 7.05878906,1.32207031 L1.73496094,4.396875 C1.46699219,4.55136719 1.12519531,4.45976563 0.970703125,4.19179688 C0.816210938,3.92382812 0.9078125,3.58203125 1.17578125,3.42753906 L6.49960938,0.352734375 C6.76757812,0.198242188 7.109375,0.28984375 7.26386719,0.5578125 Z" id="路径" fill="#002264"></path>
                <path d="M6.27949219,0.5578125 C6.125,0.82578125 6.21660156,1.16757813 6.48457031,1.32207031 L11.8617187,4.42695312 C12.1296875,4.58144531 12.4714844,4.48984375 12.6259766,4.221875 C12.7804687,3.95390625 12.6888672,3.61210937 12.4208984,3.45761719 L7.04511719,0.352734375 C6.77714844,0.198242188 6.43535156,0.28984375 6.27949219,0.5578125 Z M0.965234375,3.65175781 C0.810742188,3.91972656 0.90234375,4.26152344 1.1703125,4.41601562 L6.55429688,7.525 C6.82226563,7.67949219 7.1640625,7.58789063 7.31855469,7.31992188 C7.47304688,7.05195313 7.38144531,6.71015625 7.11347656,6.55566406 L1.72949219,3.44667969 C1.46152344,3.2921875 1.11972656,3.38378906 0.965234375,3.65175781 Z" id="形状" fill="#002264"></path>
                <path d="M12.6369141,3.68183594 C12.7914062,3.94980469 12.6998047,4.29160156 12.4318359,4.44609375 L7.09980469,7.525 C6.83183594,7.67949219 6.49003906,7.58789062 6.33554688,7.31992187 C6.18105469,7.05195312 6.27265625,6.71015625 6.540625,6.55566406 L11.8740234,3.47675781 C12.140625,3.32226562 12.4824219,3.41386719 12.6369141,3.68183594 Z M0.965234375,9.85878906 C0.810742188,10.1267578 0.90234375,10.4685547 1.1703125,10.6230469 L6.55429688,13.7320312 C6.82226563,13.8865234 7.1640625,13.7949219 7.31855469,13.5269531 C7.47304688,13.2589844 7.38144531,12.9171875 7.11347656,12.7626953 L1.72949219,9.65371094 C1.46152344,9.49921875 1.11972656,9.59082031 0.965234375,9.85878906 Z" id="形状" fill="#002264"></path>
                <path d="M12.6369141,9.88886719 C12.7914062,10.1568359 12.6998047,10.4986328 12.4318359,10.653125 L7.0984375,13.7320312 C6.83046875,13.8865234 6.48867188,13.7949219 6.33417969,13.5269531 C6.1796875,13.2589844 6.27128906,12.9171875 6.53925781,12.7626953 L11.8726563,9.68378906 C12.140625,9.52929687 12.4824219,9.62089844 12.6369141,9.88886719 Z M1.45195313,3.37558594 C1.7609375,3.37558594 2.0125,3.62578125 2.0125,3.93613281 L2.0125,10.1117187 C2.0125,10.4207031 1.76230469,10.6722656 1.45195313,10.6722656 C1.14296875,10.6722656 0.89140625,10.4220703 0.89140625,10.1117187 L0.89140625,3.93613281 C0.892773437,3.62714844 1.14296875,3.37558594 1.45195313,3.37558594 L1.45195313,3.37558594 Z" id="形状" fill="#002264"></path>
                <path d="M6.87011719,6.46542969 C7.17910156,6.46542969 7.43066406,6.715625 7.43066406,7.02597656 L7.43066406,13.2015625 C7.43066406,13.5105469 7.18046875,13.7621094 6.87011719,13.7621094 C6.56113281,13.7621094 6.30957031,13.5119141 6.30957031,13.2015625 L6.30957031,7.02597656 C6.30957031,6.71699219 6.55976562,6.46542969 6.87011719,6.46542969 Z M12.1611328,6.34375 C12.4701172,6.34375 12.7216797,6.59394531 12.7216797,6.90429688 L12.7216797,10.1800781 C12.7216797,10.4890625 12.4714844,10.740625 12.1611328,10.740625 C11.8521484,10.740625 11.6005859,10.4904297 11.6005859,10.1800781 L11.6005859,6.90429688 C11.6005859,6.5953125 11.8507812,6.34375 12.1611328,6.34375 Z" id="形状" fill="#002264"></path>
            </g>
        </g>
    </g>
</svg>