<?xml version="1.0" encoding="UTF-8"?>
<svg width="17px" height="17px" viewBox="0 0 17 17" version="1.1" xmlns="http://www.w3.org/2000/svg" xmlns:xlink="http://www.w3.org/1999/xlink">
    <!-- Generator: Sketch 53.2 (72643) - https://sketchapp.com -->
    <title>语言 copy</title>
    <desc>Created with Sketch.</desc>
    <g id="语言-copy" stroke="none" stroke-width="1" fill="none" fill-rule="evenodd">
        <g fill-rule="nonzero">
            <path d="M14.4917544,12.5531579 L14.4291228,12.5531579 C12.9992538,12.3355221 11.8774992,11.2125587 11.6614035,9.78245614 C11.2498246,6.90140351 14.3605263,4.13070175 14.4947368,4.01438596 C14.6800429,3.84966948 14.9637923,3.86636063 15.1285087,4.05166669 C15.2932252,4.23697275 15.2765341,4.52072209 15.0912281,4.6854386 C15.0614035,4.7122807 12.2101754,7.25631579 12.5531579,9.65719298 C12.8007018,11.3750877 14.4917544,11.6524561 14.5633333,11.6614035 C14.8104081,11.6795223 14.9960136,11.8945042 14.9778947,12.1415789 C14.9597759,12.3886537 14.7447941,12.5742592 14.4977193,12.5561404 L14.4917544,12.5531579 Z" id="Path" fill="#E6EDFD"></path>
            <path d="M9.42157895,16.1321053 L8.22859649,16.1321053 C8.00973056,16.1334935 7.82244286,15.9753114 7.78719298,15.7592982 L7.45614035,13.7014035 C7.32443723,12.9178918 6.78596968,12.2635515 6.04245614,11.9835088 C5.33710796,11.7208255 4.7510624,11.2110825 4.39315789,10.5489474 L3.52526316,8.94736842 C3.19470934,8.348113 2.46758635,8.09163223 1.83421053,8.35087719 C1.60360742,8.44558917 1.33988744,8.33542765 1.24517546,8.10482455 C1.15046347,7.87422145 1.26062498,7.61050147 1.49122807,7.51578947 C2.55166497,7.08953428 3.76302354,7.5288605 4.30368421,8.53578947 L5.16859649,10.1403509 C5.42059836,10.608167 5.83394748,10.9685227 6.33175439,11.154386 C7.37928072,11.5456396 8.13940651,12.4648351 8.32701754,13.567193 L8.60736842,15.2522807 L9.09947368,15.2522807 L9.80631579,13.122807 C9.96044446,12.658159 9.76586309,12.1492539 9.34105263,11.9059649 L6.83280702,10.4714035 C6.31326038,10.1735768 5.9925053,9.62078614 5.99175439,9.02192982 C5.9902936,8.62452643 6.17315063,8.24889844 6.48684211,8.00491228 C6.79839979,7.75510108 7.20764384,7.66269113 7.59631579,7.75438596 C7.64756076,7.76756027 7.69604113,7.78978044 7.73947368,7.82 L9.0845614,8.74157895 L9.55877193,8.64912281 L9.11438596,8.71473684 C9.07859649,8.47017544 9.04280702,8.22561404 9.01596491,8.0377193 C8.9752094,7.73127404 9.02714756,7.4196451 9.16508772,7.14298246 L9.49017544,6.49578947 C9.50349455,6.4727201 9.50349455,6.44429745 9.49017544,6.42122807 C9.47526992,6.40019715 9.45020751,6.38880515 9.4245614,6.39140351 L8.14210526,6.5345614 C7.68448804,6.58442706 7.24342516,6.34729648 7.03263158,5.93807018 L6.73438596,5.34157895 C6.58187505,5.0339405 6.60017308,4.66915425 6.78270389,4.37832183 C6.9652347,4.08748941 7.28577423,3.91239447 7.62912281,3.91596491 L8.00192982,3.91596491 C9.23072129,3.92060516 10.3365829,3.17112933 10.7875439,2.02807018 L11.0947368,1.19298246 C11.1560048,1.0438084 11.2922021,0.938651922 11.4520245,0.917124463 C11.611847,0.895597004 11.7710138,0.960969093 11.8695684,1.0886157 C11.968123,1.2162623 11.9910925,1.38679086 11.9298246,1.53596491 L11.6047368,2.35017544 C11.0171512,3.83270472 9.58173384,4.80424438 7.98701754,4.79877193 L7.60824561,4.79877193 C7.57686294,4.79812445 7.54743606,4.81396969 7.53070175,4.84052632 C7.51407694,4.86803412 7.51407694,4.90249219 7.53070175,4.93 L7.82894737,5.52649123 C7.86895944,5.6050588 7.9529313,5.65118419 8.04070175,5.64280702 L9.32315789,5.49964912 C9.67477191,5.46120307 10.0192946,5.61793778 10.2213402,5.90826185 C10.4233859,6.19858592 10.4506644,6.57610085 10.2924561,6.89245614 L9.96736842,7.53964912 C9.90963767,7.65804707 9.8878635,7.79076583 9.90473684,7.92140351 C9.93157895,8.10929825 9.96736842,8.34789474 10.0031579,8.58947368 C10.0606412,8.95018498 9.89751572,9.31042658 9.58850504,9.50518121 C9.27949436,9.69993584 8.88412635,9.69168592 8.58350877,9.48421053 L7.31596491,8.61929825 C7.20577559,8.60915412 7.09645268,8.64621055 7.01514281,8.72126582 C6.93383293,8.79632109 6.88816303,8.90233494 6.88947368,9.01298246 C6.89042889,9.29119303 7.03923565,9.54791308 7.28017544,9.68701754 L9.78842105,11.1185965 C10.5828598,11.5750523 10.9467804,12.5272282 10.6592982,13.397193 L9.84210526,15.8249123 C9.78290071,16.0073235 9.61335527,16.1311758 9.42157895,16.1321053 Z" id="Path" fill="#E6EDFD"></path>
            <path d="M8.52684211,1.66719298 C12.3153217,1.66719298 15.3864912,4.73836251 15.3864912,8.52684211 C15.3864912,12.3153217 12.3153217,15.3864912 8.52684211,15.3864912 C4.73836251,15.3864912 1.66719298,12.3153217 1.66719298,8.52684211 C1.66719298,4.73836251 4.73836251,1.66719298 8.52684211,1.66719298 L8.52684211,1.66719298 Z M8.52684211,0.175964912 C3.91477998,0.175964912 0.175964912,3.91477998 0.175964912,8.52684211 C0.175964912,13.1389042 3.91477998,16.8777193 8.52684211,16.8777193 C13.1389042,16.8777193 16.8777193,13.1389042 16.8777193,8.52684211 C16.8777193,3.91477998 13.1389042,0.175964912 8.52684211,0.175964912 Z" id="Shape" fill="#D6E3FE"></path>
        </g>
    </g>
</svg>