<?xml version="1.0" encoding="UTF-8"?>
<svg width="34px" height="44px" viewBox="0 0 34 44" version="1.1" xmlns="http://www.w3.org/2000/svg" xmlns:xlink="http://www.w3.org/1999/xlink">
    <!-- Generator: Sketch 59 (86127) - https://sketch.com -->
    <title>编组</title>
    <desc>Created with Sketch.</desc>
    <defs>
        <path d="M17.0757711,0 C7.65971967,0.0347550593 0.0352444781,7.55236425 -1.16795276e-07,16.8364467 C-1.16795276e-07,18.6960476 0.30363137,20.5435237 0.899852357,22.3077561 C1.34429096,23.5065006 2.66007213,24.1551767 3.8993595,23.7864935 C5.10199705,23.3358869 5.74055576,22.039633 5.35626416,20.8290299 C4.84907666,19.4570426 4.62331597,17.9994045 4.69208714,16.5407015 C4.88957543,9.97720909 10.3415972,4.75669523 17.0013126,4.75415488 C23.6610281,4.75161453 29.1171441,9.96796844 29.3197841,16.5313166 C29.522413,23.0946537 24.3981988,28.6285732 17.7506568,29.0254443 C17.7506568,29.0254443 15.361763,29.1733169 14.1619663,29.3211896 C13.7219996,29.3824019 13.2857232,29.4670321 12.8550385,29.5746807 C12.7910546,29.6219933 12.7015424,29.6157146 12.6449953,29.55996 C12.5884483,29.5042166 12.5820915,29.4159478 12.6300654,29.3528718 L13.0050131,27.3565802 L15.2546431,17.3117469 C15.5238323,16.066311 14.7180761,14.8415197 13.4549368,14.5760922 C12.1917863,14.3106758 10.9495849,15.1051389 10.6803901,16.3505748 C10.6803901,16.3505748 5.32412595,40.876437 5.32412595,41.098247 C5.17506043,41.6963092 5.28239408,42.328504 5.62087424,42.8460948 C5.95935439,43.3636862 6.49909751,43.7209763 7.113118,43.8339053 C7.72101011,43.9775041 8.36203277,43.868921 8.88646341,43.5335177 C9.41089293,43.1981149 9.77280422,42.6652642 9.88766247,42.0594246 C9.96265089,41.7636772 10.6375399,38.5104627 10.6375399,38.5104627 C11.1467132,36.0578693 13.1518149,34.1778192 15.6617122,33.799638 C16.1759124,33.7257005 18.3505551,33.5778279 18.3505551,33.5778279 C27.3740523,32.7555174 34.1721089,25.1226386 33.8331304,16.1939496 C33.4941518,7.26526061 26.1363626,0.154850263 17.0757711,0 Z" id="path-1"></path>
        <path d="M3.58395,0.104468 C2.838075,-0.0747586667 2.0626125,0.105802667 1.42935,0.60618 C0.795975,1.10655733 0.3571125,1.88547067 0.20985,2.77048133 C0.049425,3.655596 0.1980375,4.57994667 0.6217125,5.333192 C1.0455,6.08643667 1.7082375,6.604504 2.4592875,6.76950301 C3.2056125,6.97072053 3.98895,6.79899031 4.62525,6.294664 C5.26155,5.79033773 5.6945625,4.99787733 5.8227,4.10348933 C6.0847125,2.27893067 5.104275,0.527518667 3.58395,0.104468 L3.58395,0.104468 Z" id="path-3"></path>
    </defs>
    <g id="实验室" stroke="none" stroke-width="1" fill="none" fill-rule="evenodd">
        <g id="Polka-01" transform="translate(-413.000000, -164.000000)">
            <g id="编组" transform="translate(413.000000, 164.000000)">
                <g>
                    <mask id="mask-2" fill="white">
                        <use xlink:href="#path-1"></use>
                    </mask>
                    <g id="Clip-2"></g>
                    <polygon id="Fill-1" fill="#1E1E1E" mask="url(#mask-2)" points="-5.62545336 -5.54661017 33.3745466 -5.54661017 33.3745466 49.4424409 -5.62545336 49.4424409"></polygon>
                </g>
                <g transform="translate(15.000000, 37.000000)">
                    <mask id="mask-4" fill="white">
                        <use xlink:href="#path-3"></use>
                    </mask>
                    <g id="Clip-4"></g>
                    <polygon id="Fill-3" fill="#E6007A" mask="url(#mask-4)" points="-5.47815 -6.62978667 11.49 -6.62978667 11.49 13.5184027 -5.47815 13.5184027"></polygon>
                </g>
            </g>
        </g>
    </g>
</svg>